<svg xmlns="http://www.w3.org/2000/svg" fill="none" viewBox="0 0 128 128">
    <path d="M0 0 C3.51439205 0.01609422 7.02763452 0.00005148 10.54199219 -0.01904297 C34.76658567 -0.04200547 62.57448515 1.2405029 81.39355469 18.70361328 C99.34932312 38.35907824 100.22589001 67.84326766 100.04003906 92.95458984 C100.01856241 96.38987751 100.0400053 99.82307491 100.06542969 103.25830078 C100.09535463 127.39567564 98.48152559 155.092598 81.51855469 174.01611328 C61.78140709 192.40557018 32.36148463 192.91982069 7.03710938 192.78222656 C3.52271733 192.76613234 0.00947486 192.78217508 -3.50488281 192.80126953 C-27.7294763 192.82423204 -55.53737577 191.54172366 -74.35644531 174.07861328 C-92.31221374 154.42314832 -93.18878063 124.9389589 -93.00292969 99.82763672 C-92.98145304 96.39234905 -93.00289593 92.95915166 -93.02832031 89.52392578 C-93.05824526 65.38655092 -91.44441622 37.68962856 -74.48144531 18.76611328 C-54.74429771 0.37665638 -25.32437525 -0.13759413 0 0 Z " transform="translate(92.4814453125,-0.39111328125)" style="fill: #8B6DB0;"/><path d="M0 0 C6.249375 -0.0928125 6.249375 -0.0928125 12.625 -0.1875 C13.92775879 -0.21481201 15.23051758 -0.24212402 16.57275391 -0.27026367 C24.22169908 -0.32533039 28.60711005 0.56597025 34.875 5.0625 C37.53547775 8.74021925 37.70764127 11.09459964 37.5078125 15.55078125 C36.69741825 19.45937506 34.85938665 21.28358269 32 24 C32.804375 24.61875 33.60875 25.2375 34.4375 25.875 C37.1053449 28.08735919 37.8687952 28.80410052 38.23828125 32.171875 C38.36323591 36.51240532 38.25915071 39.42986844 36.4375 43.4375 C32.66513152 47.40332327 29.28078246 48.82519092 23.90063477 49.23754883 C20.28201437 49.29500332 16.68104269 49.26093226 13.0625 49.1875 C8.751875 49.125625 4.44125 49.06375 0 49 C0 32.83 0 16.66 0 0 Z " transform="translate(103,70)" style="fill: #F6F4F9;"/><path d="M0 0 C2.31 0 4.62 0 7 0 C15.46170173 16.73856046 15.46170173 16.73856046 19 25 C19.6224449 26.41779117 20.24755191 27.8344159 20.875 29.25 C21.19726562 29.97832031 21.51953125 30.70664063 21.8515625 31.45703125 C23.79223945 35.75424449 25.8137533 40.01425514 27.828125 44.27734375 C29 47 29 47 29 49 C26.03 49 23.06 49 20 49 C16.125 41.375 16.125 41.375 15 38 C7.41 38 -0.18 38 -8 38 C-9.32 41.63 -10.64 45.26 -12 49 C-14.97 49 -17.94 49 -21 49 C-19.68314247 44.02023295 -17.99360116 39.3867472 -15.875 34.6875 C-15.57295654 34.00816406 -15.27091309 33.32882813 -14.9597168 32.62890625 C-14.31367565 31.17675757 -13.66575754 29.72544269 -13.01611328 28.27490234 C-11.97002547 25.9328922 -10.93498943 23.5862468 -9.90234375 21.23828125 C-9.20588994 19.65878326 -8.50927892 18.07935459 -7.8125 16.5 C-7.49200684 15.77127686 -7.17151367 15.04255371 -6.84130859 14.29174805 C-4.69633698 9.45366998 -2.39655625 4.71871829 0 0 Z " transform="translate(69,70)" style="fill: #F8F6FA;"/><path d="M0 0 C2.58361518 -0.05407567 5.16609255 -0.093707 7.75 -0.125 C8.84441406 -0.15013672 8.84441406 -0.15013672 9.9609375 -0.17578125 C16.90003453 -0.23886395 16.90003453 -0.23886395 20 2 C21.42041821 4.84083641 21.31452272 6.85477278 21 10 C19.52734375 12.1796875 19.52734375 12.1796875 17 14 C14.0666556 14.48497961 11.21277158 14.37774803 8.25 14.25 C7.06083984 14.22292969 7.06083984 14.22292969 5.84765625 14.1953125 C3.89791652 14.14833082 1.94880122 14.07659044 0 14 C0 9.38 0 4.76 0 0 Z " transform="translate(112,98)" style="fill: #8D6FB1;"/><path d="M0 0 C2.58396679 -0.08112454 5.16537568 -0.14054748 7.75 -0.1875 C8.47960937 -0.21263672 9.20921875 -0.23777344 9.9609375 -0.26367188 C13.1847611 -0.30763311 15.58441708 -0.21105862 18.484375 1.26171875 C20.28727698 3.32948005 20.54116907 4.28284131 20.5 7 C20.5103125 7.680625 20.520625 8.36125 20.53125 9.0625 C20 11 20 11 18.484375 12.73828125 C14.95271891 14.53187388 11.60981097 14.32047935 7.75 14.1875 C6.63238281 14.16719727 6.63238281 14.16719727 5.4921875 14.14648438 C3.66114584 14.11127204 1.83047831 14.05746851 0 14 C0 9.38 0 4.76 0 0 Z " transform="translate(111,77)" style="fill: #9276B4;"/><path d="M0 0 C3.27654325 2.67633563 4.60786726 6.19328012 6.1875 10 C6.46013672 10.6290625 6.73277344 11.258125 7.01367188 11.90625 C8.22496537 14.7720672 9 16.85703523 9 20 C3.39 20 -2.22 20 -8 20 C-6.5996101 15.79883031 -5.14863332 11.81585709 -3.4375 7.75 C-3.00308594 6.71359375 -2.56867188 5.6771875 -2.12109375 4.609375 C-1.45344266 3.05539964 -0.7563858 1.5127716 0 0 Z " transform="translate(72,81)" style="fill: #9378B6;"/>
</svg>
